<svg width="448" height="533" viewBox="0 0 448 533" fill="none" xmlns="http://www.w3.org/2000/svg">
<path d="M121.334 38.2674C66.5336 59.2008 21.867 76.5341 22.0003 76.8008C22.267 76.9341 66.8003 62.6674 121.067 45.0674C190.534 22.5341 220.8 13.3341 223.734 13.7341C226.8 14.1341 410.134 73.0674 423.6 78.0008C425.067 78.5341 426 78.6674 425.6 78.2674C424.934 77.4674 222.134 -0.265915 221.334 0.00075531C221.067 0.00075531 176.134 17.2008 121.334 38.2674Z" fill="#D6C58E"/>
<path d="M182.859 119.067C179.659 123.201 179.126 125.867 181.259 127.201C182.859 128.134 186.859 120.401 186.326 117.467C186.059 115.734 185.259 116.134 182.859 119.067Z" fill="#D6C58E"/>
<path d="M261.259 117.334C261.392 120.001 266.459 128.934 266.592 126.534C266.592 124.801 266.725 124.801 267.925 126.534C269.925 129.601 269.525 126.801 267.392 122.668C264.859 118.001 261.259 114.668 261.259 117.334Z" fill="#D6C58E"/>
<path d="M195.125 120C190.192 121.467 186.325 125.2 189.659 125.2C192.592 125.2 201.259 120.934 201.259 119.6C201.259 118.4 200.592 118.4 195.125 120Z" fill="#D6C58E"/>
<path d="M247.926 120.401C247.926 120.801 249.792 122.134 252.059 123.334C255.392 124.934 256.592 125.068 257.792 123.734C258.859 122.534 258.859 122.401 257.659 123.068C256.859 123.468 255.926 123.334 255.659 122.668C255.259 121.201 247.926 119.068 247.926 120.401Z" fill="#D6C58E"/>
<path d="M172.192 125.334C170.592 128.001 169.392 131.601 169.392 133.334C169.525 135.868 169.659 136.001 170.192 134.001C170.725 132.134 171.125 132.001 171.925 133.201C173.125 135.201 176.325 126.401 175.659 122.934C175.392 121.068 174.459 121.734 172.192 125.334Z" fill="#D6C58E"/>
<path d="M273.392 125.201C273.392 127.067 273.925 129.734 274.592 131.201L275.792 133.867L275.925 131.201L276.059 128.534L277.259 131.201C278.325 133.734 278.459 133.734 278.459 131.067C278.592 129.467 277.392 126.801 275.925 125.067L273.392 121.867V125.201Z" fill="#D6C58E"/>
<path d="M185.259 129.334C185.259 130 184.192 130.534 182.992 130.667C181.392 130.8 181.659 131.2 183.926 131.867C192.059 134.534 197.126 132.134 189.259 129.334C186.859 128.534 185.259 128.534 185.259 129.334Z" fill="#D6C58E"/>
<path d="M256.059 130.401C254.725 131.201 254.725 131.734 255.925 132.534C258.059 133.868 266.859 132.001 265.925 130.401C264.859 128.934 258.592 128.801 256.059 130.401Z" fill="#D6C58E"/>
<path d="M161.526 133.867C160.592 135.734 160.059 139.6 160.059 142.267C160.326 146.8 160.326 146.934 160.992 143.2C161.526 139.734 161.659 139.6 162.592 141.867C163.392 144 163.792 143.334 164.592 138.8C165.659 131.867 163.792 128.8 161.526 133.867Z" fill="#D6C58E"/>
<path d="M283.926 131.867C283.126 137.2 284.859 145.2 286.726 145.2C289.392 145.2 289.392 141.334 286.859 135.6C285.392 132.534 284.059 130.8 283.926 131.867Z" fill="#D6C58E"/>
<path d="M174.592 135.868C173.126 136.801 173.126 137.201 174.326 137.201C175.259 137.201 175.659 137.868 175.126 138.668C174.459 139.868 175.659 140.001 179.392 139.201C182.192 138.668 184.859 138.001 185.126 137.734C187.126 135.734 177.259 134.001 174.592 135.868Z" fill="#D6C58E"/>
<path d="M263.392 137.067C262.459 138.534 267.259 139.867 272.592 139.734C276.059 139.467 276.192 139.467 273.392 138.934C270.859 138.401 270.592 138.001 272.059 137.067C273.392 136.267 272.459 135.867 268.992 135.867C266.326 135.867 263.792 136.401 263.392 137.067Z" fill="#D6C58E"/>
<path d="M151.126 145.734C150.726 148.534 150.859 152.667 151.659 154.934C152.726 158.534 152.992 158.667 153.126 156.134C153.259 154.134 153.792 153.334 154.859 154.001C155.926 154.667 156.059 153.334 155.526 149.201C154.459 141.334 152.326 139.601 151.126 145.734Z" fill="#D6C58E"/>
<path d="M294.192 142.001C292.992 143.201 292.992 153.468 294.059 156.401C295.526 160.134 297.259 157.201 297.126 151.468C297.126 145.068 295.659 140.534 294.192 142.001ZM295.526 153.468C295.126 154.534 294.726 154.134 294.726 152.668C294.592 151.201 294.992 150.401 295.392 150.934C295.792 151.334 295.926 152.534 295.526 153.468Z" fill="#D6C58E"/>
<path d="M165.926 145.2C165.526 145.867 165.526 146.534 166.192 146.534C166.726 146.534 166.326 147.2 165.259 147.867C163.526 148.934 163.659 149.2 165.659 149.2C168.326 149.2 177.259 145.734 177.259 144.667C177.259 143.334 166.726 143.867 165.926 145.2Z" fill="#D6C58E"/>
<path d="M275.259 146.667C281.659 149.6 286.059 150 281.259 147.067L277.926 145.067L281.259 145.867C283.792 146.534 284.192 146.4 282.592 145.334C281.526 144.534 278.192 144 275.259 144L269.926 144.134L275.259 146.667Z" fill="#D6C58E"/>
<path d="M160.725 155.2C158.325 156.934 156.592 161.2 158.059 161.2C160.059 161.2 167.525 157.2 169.125 155.467C170.725 153.467 170.459 153.2 167.125 153.2C164.992 153.2 162.059 154.134 160.725 155.2Z" fill="#D6C58E"/>
<path d="M277.259 153.734C277.259 154.801 286.192 159.867 288.059 159.867C289.125 159.734 288.459 158.934 286.592 157.734L283.259 155.734L286.592 156.534C289.792 157.334 289.792 157.201 287.392 155.334C285.125 153.467 277.259 152.267 277.259 153.734Z" fill="#D6C58E"/>
<path d="M300.859 159.201C298.459 164.268 297.792 171.201 299.792 172.401C302.992 174.401 306.459 163.068 304.325 157.468C303.125 154.534 303.125 154.534 300.859 159.201Z" fill="#D6C58E"/>
<path d="M142.592 159.867C142.592 163.867 145.792 173.2 147.126 173.2C147.392 173.2 147.259 171.334 146.592 169.2C145.259 164.534 146.059 163.867 148.059 168.134C148.992 170.534 149.126 170 148.459 165.867C146.992 156.4 142.592 151.867 142.592 159.867Z" fill="#D6C58E"/>
<path d="M285.259 167.2C289.259 171.467 295.526 174.934 296.459 173.334C297.526 171.6 290.326 165.467 285.926 164.4L281.926 163.467L285.259 167.2Z" fill="#D6C58E"/>
<path d="M156.859 167.334C154.726 168.534 153.392 169.734 153.792 170.267C154.326 170.667 155.392 170.267 156.192 169.467C157.126 168.534 158.326 167.867 158.992 167.867C159.526 167.867 158.326 169.334 156.326 171.334L152.592 174.667L156.592 172.8C158.859 171.734 161.792 169.6 163.126 168C165.659 165.2 165.659 165.2 163.126 165.2C161.792 165.334 158.859 166.267 156.859 167.334Z" fill="#D6C58E"/>
<path d="M137.659 176.801C139.126 185.468 146.326 192.268 145.659 184.268C145.392 180.668 140.059 171.868 138.059 171.868C137.392 171.868 137.259 174.134 137.659 176.801ZM145.259 187.068C145.259 188.668 144.592 188.001 142.726 183.868C141.259 180.668 141.259 180.668 143.126 183.068C144.326 184.534 145.259 186.268 145.259 187.068Z" fill="#D6C58E"/>
<path d="M305.526 176.4C302.059 181.467 301.126 188 303.659 188.8C305.526 189.467 310.459 179.467 310.592 174.8C310.592 170.667 309.126 171.2 305.526 176.4ZM304.326 185.867C303.926 187.067 303.259 187.734 302.992 187.334C302.592 186.934 302.726 186.134 303.259 185.334C304.459 183.2 305.259 183.6 304.326 185.867Z" fill="#D6C58E"/>
<path d="M155.792 178.534C154.592 179.201 152.592 181.468 151.259 183.468L148.859 187.201L151.659 184.668C153.259 183.201 154.592 182.801 154.592 183.468C154.592 184.268 153.659 185.601 152.592 186.534C151.526 187.468 150.592 188.934 150.592 189.734C150.726 191.468 161.259 180.134 161.259 178.401C161.259 176.801 158.459 176.934 155.792 178.534Z" fill="#D6C58E"/>
<path d="M288.859 181.334C290.192 183.6 292.992 186.667 295.125 188.267L298.992 190.934L296.459 187.067L294.059 183.2L297.125 185.867L300.325 188.534L298.859 185.6C296.859 182 290.859 177.2 288.325 177.2C286.859 177.2 286.859 178 288.859 181.334Z" fill="#D6C58E"/>
<path d="M135.392 193.467C137.126 199.201 139.926 203.734 142.726 205.334C145.792 206.934 145.526 205.734 141.392 200.534C140.326 199.067 141.526 199.867 144.192 202.267C147.792 205.734 149.259 206.401 149.926 204.934C150.592 204.001 150.592 203.601 149.926 204.134C149.392 204.667 147.126 202.534 144.859 199.467C138.592 190.801 133.526 187.734 135.392 193.467Z" fill="#D6C58E"/>
<path d="M156.859 192C154.726 193.334 150.592 199.867 150.592 202.134C150.592 202.667 151.526 202 152.592 200.667C154.992 197.467 155.259 198.8 153.126 202.934C151.526 205.867 151.526 205.867 154.326 203.334C156.992 201.067 160.859 192.267 159.659 191.2C159.392 190.934 158.192 191.334 156.859 192Z" fill="#D6C58E"/>
<path d="M287.926 191.734C287.926 194.134 292.859 203.201 295.126 205.068C298.459 207.868 299.259 203.334 296.459 198.401C293.659 193.734 287.926 189.201 287.926 191.734ZM297.259 204.401C297.259 206.001 296.592 205.334 294.726 201.201C293.259 198.001 293.259 198.001 295.126 200.401C296.326 201.868 297.259 203.601 297.259 204.401Z" fill="#D6C58E"/>
<path d="M308.326 193.467C306.859 195.2 304.459 198.267 303.126 200.534L300.726 204.534L303.659 202C307.526 198.667 307.392 200.8 303.659 205.067L300.592 208.4L303.926 206.267C307.259 204.267 313.259 195.334 313.259 192.134C313.259 189.734 311.392 190.134 308.326 193.467Z" fill="#D6C58E"/>
<path d="M285.259 205.734C285.259 209.734 288.192 219.867 289.525 220.667C290.325 221.201 290.592 220.401 289.925 218.667C288.725 214.934 290.325 215.067 291.925 218.801L293.125 221.867V218.801C293.259 214.801 290.192 207.734 287.525 205.334C285.525 203.734 285.259 203.867 285.259 205.734Z" fill="#D6C58E"/>
<path d="M157.259 209.467C155.792 211.867 154.592 215.6 154.725 217.867L154.859 221.867L156.725 217.867L158.592 213.867L157.925 218.534L157.259 223.2L159.925 217.867C162.725 212.134 163.392 205.2 161.259 205.2C160.459 205.2 158.725 207.2 157.259 209.467Z" fill="#D6C58E"/>
<path d="M137.792 214.4C140.059 218.667 147.259 225.2 149.792 225.2C153.259 225.2 151.259 220.8 145.526 215.734C138.192 209.334 134.859 208.667 137.792 214.4ZM149.792 222.4C149.392 222.8 147.792 221.6 146.192 220L143.259 216.8L146.859 219.334C148.726 220.667 150.059 222.134 149.792 222.4Z" fill="#D6C58E"/>
<path d="M301.926 216C296.859 220.267 296.059 221.334 298.592 220.667L301.926 219.734L298.592 222.401C294.059 226.134 297.126 226.001 302.459 222.134C307.792 218.534 313.126 210.534 310.326 210.534C309.392 210.534 305.526 213.067 301.926 216Z" fill="#D6C58E"/>
<path d="M164.592 223.068C163.392 226.001 162.992 229.334 163.526 232.134C164.459 236.401 164.459 236.401 165.392 233.201C166.192 230.134 166.326 230.134 166.459 232.801C166.592 234.401 167.259 236.134 167.926 236.534C168.726 237.068 169.259 233.868 169.259 228.001C169.259 217.601 167.526 215.868 164.592 223.068Z" fill="#D6C58E"/>
<path d="M279.526 219.467C278.192 220.667 278.592 233.334 279.926 236.534C280.859 238.801 281.126 238.401 281.259 234.534L281.526 229.867L282.592 233.867L283.526 237.867L284.459 233.067C285.126 229.867 284.859 226.801 283.392 223.467C281.259 218.267 280.992 218.001 279.526 219.467Z" fill="#D6C58E"/>
<path d="M145.926 234.534C150.326 239.067 157.126 242.534 161.526 242.401C163.926 242.401 163.392 241.867 158.992 239.867C152.726 237.067 151.126 235.067 156.726 237.334C158.726 238.001 160.592 238.267 160.992 237.867C161.926 236.934 147.792 230.534 144.726 230.534C142.459 230.534 142.592 230.934 145.926 234.534Z" fill="#D6C58E"/>
<path d="M268.592 234.934C267.525 237.734 266.192 242.801 265.925 246.268L265.259 252.534L267.125 248.534C268.725 245.334 269.125 245.068 269.259 247.201C269.392 249.868 269.392 249.868 271.259 247.334C273.525 244.401 273.925 234.934 271.925 231.868C270.992 230.268 270.325 230.934 268.592 234.934Z" fill="#D6C58E"/>
<path d="M292.059 234.667C283.792 238.8 281.659 241.2 288.592 238.533C290.592 237.733 292.592 237.333 292.859 237.733C293.126 238 291.392 238.933 288.992 239.867C283.392 241.867 286.459 243.2 292.192 241.2C296.726 239.733 300.459 236.933 303.792 232.8C306.726 229.067 301.659 229.867 292.059 234.667Z" fill="#D6C58E"/>
<path d="M175.259 236.267C174.726 239.067 175.126 242.667 176.459 245.6C178.992 251.734 179.659 251.867 178.992 246.134L178.592 241.867L180.592 246.534L182.592 251.2L181.926 245.067C181.259 238.534 178.859 231.867 177.126 231.867C176.459 231.867 175.659 233.867 175.259 236.267Z" fill="#D6C58E"/>
<path d="M189.259 245.067C189.259 249.867 191.925 255.733 195.392 258.667C197.525 260.4 197.525 260.267 195.525 256.267C192.325 250.267 192.725 249.067 196.059 254.267C197.659 256.667 199.259 258.4 199.525 258C200.592 256.933 194.859 245.867 191.925 243.2C189.259 240.8 189.259 240.933 189.259 245.067Z" fill="#D6C58E"/>
<path d="M254.326 245.2C250.726 249.867 247.926 256 247.926 258.934C247.926 259.867 249.259 258.534 250.726 256.134C254.192 250.8 255.392 250.534 252.592 255.867C250.992 259.067 250.859 259.6 252.459 259.067C255.526 257.867 258.859 250.134 258.326 245.2L257.926 240.534L254.326 245.2Z" fill="#D6C58E"/>
<path d="M205.259 250.533C205.259 254.667 210.059 260.8 214.992 263.333L219.259 265.467L215.659 261.6C210.325 256 211.125 254.533 216.592 259.867C219.125 262.4 221.259 263.867 221.259 263.067C221.259 260.933 213.792 252.667 209.392 250.133C205.259 247.733 205.259 247.733 205.259 250.533Z" fill="#D6C58E"/>
<path d="M233.392 255.067C229.659 259.067 226.592 262.801 226.592 263.201C226.592 263.601 228.859 262.401 231.659 260.267L236.592 256.667L232.592 261.201L228.592 265.601L233.126 263.067C237.926 260.401 241.792 255.734 243.259 250.801C244.726 245.601 240.726 247.334 233.392 255.067Z" fill="#D6C58E"/>
<path d="M154.592 249.734C154.592 250 156.859 251.6 159.526 253.2C165.259 256.534 177.659 258.4 179.126 256C179.792 255.067 178.059 254.534 173.659 254.4L167.259 254.134L172.592 253.334L177.926 252.534L172.459 250.8C167.392 249.334 154.592 248.534 154.592 249.734Z" fill="#D6C58E"/>
<path d="M275.259 251.067L269.926 252.8L275.259 253.467L280.592 254.134L274.859 254.267C267.259 254.667 268.859 257.2 276.726 257.2C283.126 257.2 293.926 252.667 292.592 250.534C291.526 248.667 281.659 249.067 275.259 251.067Z" fill="#D6C58E"/>
<path d="M178.325 264.134C175.525 264.934 173.259 266.001 173.259 266.668C173.259 267.868 181.925 270.534 186.325 270.534C189.925 270.534 197.925 267.334 199.125 265.468C199.659 264.534 198.592 264.401 195.659 265.334C188.992 267.201 186.459 266.534 192.592 264.534L197.925 262.801H190.592C186.592 262.801 180.992 263.468 178.325 264.134Z" fill="#D6C58E"/>
<path d="M256.592 264.667L261.925 266.534L255.925 265.867C250.192 265.201 250.059 265.334 253.259 267.201C258.459 270.267 274.592 269.734 274.592 266.401C274.592 264.667 265.259 262.534 257.925 262.667L251.259 262.801L256.592 264.667Z" fill="#D6C58E"/>
<path d="M210.592 269.067C205.525 270.667 199.259 274.134 197.392 276.401C195.925 278.267 195.925 278.534 198.059 278.667C207.259 279.467 214.459 277.201 219.125 272.001C222.325 268.534 221.259 268.534 214.192 271.867C208.992 274.401 209.525 273.467 215.525 269.601C218.325 267.734 215.925 267.467 210.592 269.067Z" fill="#D6C58E"/>
<path d="M231.926 268.534C231.926 268.801 234.192 270.268 236.992 271.734C239.659 273.201 241.126 274.401 240.192 274.534C239.259 274.534 236.059 273.334 233.126 271.734C229.392 269.868 227.792 269.601 228.192 270.801C229.259 274.134 240.192 278.534 247.259 278.534C253.526 278.401 253.792 278.268 251.259 276.401C245.659 272.134 231.926 266.401 231.926 268.534Z" fill="#D6C58E"/>
<path d="M152.4 306.667C145.467 309.334 137.067 318.8 137.067 324.134C137.067 325.467 148.267 330.134 148.4 328.8C148.4 328.667 149.333 326.8 150.4 324.534C153.2 319.2 160.8 316.267 166.267 318.534C171.067 320.4 173.867 327.067 171.867 332C170.8 335.067 148.4 357.867 140.8 363.867C137.867 366.134 137.067 367.867 137.067 372V377.2H162.4H187.733V371.2V365.2H173.067C165.067 365.2 158.4 364.934 158.4 364.667C158.4 364.4 163.2 359.467 169.2 353.734C175.067 348 181.067 341.334 182.533 339.067C189.2 328.134 186.133 314.534 175.6 309.067C169.067 305.734 158 304.667 152.4 306.667Z" fill="#D6C58E"/>
<path d="M22.6667 317.467C20.5333 323.6 14.4 339.467 9.33333 352.8L0 377.2H6.93333H14L16.5333 369.867L18.9333 362.4L35.4667 362.8L52 363.2L54.6667 370.134L57.2 377.2H64.5333H71.7333L68.5333 368.8C66.8 364.267 60.6667 348.4 55.0667 333.467L44.6667 306.534H35.7333H26.8L22.6667 317.467ZM41.4667 335.067C44.2667 342.267 46.4 348.667 46.4 349.334C46.4 350 41.6 350.534 35.7333 350.534C28.1333 350.534 25.0667 350 25.0667 348.8C25.0667 345.867 35.0667 320 35.8667 320.934C36.2667 321.467 38.8 327.734 41.4667 335.067Z" fill="#D6C58E"/>
<path d="M71.7334 330.134C71.7334 343.201 72.4001 356.134 73.0667 358.801C77.2001 373.467 95.8667 382.001 113.333 377.201C119.867 375.334 125.733 370.267 129.467 363.334C132.133 358.401 132.4 355.601 132.8 332.134L133.333 306.534H126.667H120L119.467 330.934C119.067 358.267 118.133 361.067 109.733 364.667C103.867 367.067 99.2001 367.067 94.4001 364.534C86.9334 360.667 85.8667 356.401 85.3334 330.134L84.8001 306.534H78.2667H71.7334V330.134Z" fill="#D6C58E"/>
<path d="M191.733 341.867V377.2H198.4H205.067V354.534C205.067 342 205.467 331.867 206.133 331.867C206.667 331.867 211.733 338.534 217.467 346.534C223.333 354.667 228.133 361.2 228.4 361.2C228.667 361.2 233.467 354.667 239.2 346.534C245.067 338.534 250.133 331.867 250.8 331.867C251.333 331.867 251.733 342 251.733 354.534V377.2H258.4H265.067V341.867V306.534H258.533H252.133L240.533 323.2C234.133 332.4 228.8 339.867 228.533 339.867C228.267 339.867 222.933 332.4 216.533 323.2L204.933 306.534H198.4H191.733V341.867Z" fill="#D6C58E"/>
<path d="M291.867 309.467C291.2 311.2 285.2 326.8 278.533 344.134C271.867 361.6 266.4 376.134 266.4 376.534C266.4 376.934 269.333 377.2 272.933 377.2H279.6L282.133 370.134L284.8 363.2L301.333 362.8L318 362.4L320.4 369.867L322.933 377.2H330C333.867 377.2 337.067 376.8 337.067 376.134C336.933 375.6 331.067 359.867 323.867 341.2L310.8 307.2L302 306.8C293.733 306.4 292.933 306.667 291.867 309.467ZM312.133 349.467C311.333 350.934 290.4 350.8 290.4 349.334C290.4 348.667 292.933 341.734 295.867 333.867L301.467 319.6L307.067 334C310.133 342 312.4 348.934 312.133 349.467Z" fill="#D6C58E"/>
<path d="M333.067 312.534V318.534H345.067H357.067V347.867V377.2H363.733H370.4L370.667 348.134L371.067 319.2L382.8 318.8L394.4 318.4V312.534V306.534H363.733H333.067V312.534Z" fill="#D6C58E"/>
<path d="M397.067 341.867V377.2H422.4H447.733V371.2V365.334L428.8 364.934L409.733 364.534L409.333 356.267L408.933 348L426 347.6L443.067 347.2L443.467 341.6L443.867 336L426.8 335.6L409.733 335.2V327.2V319.2L428.8 318.8L447.733 318.4V312.534V306.534H422.4H397.067V341.867Z" fill="#D6C58E"/>
<path d="M406.801 437.868C346.401 465.201 223.868 518.934 222.135 518.801C220.535 518.668 85.3345 463.201 32.9345 441.201C26.0012 438.268 20.1345 436.001 20.0012 436.268C19.7345 436.534 65.2012 458.134 121.068 484.401L222.668 532.268L325.335 480.801C381.868 452.534 427.601 429.334 426.801 429.468C426.135 429.468 417.068 433.201 406.801 437.868Z" fill="#D6C58E"/>
<path d="M334.91 414.615V401.043C334.91 400.179 334.358 399.699 333.254 399.603L332.21 399.495C331.946 399.447 331.814 399.291 331.814 399.027C331.814 398.691 331.982 398.523 332.318 398.523L336.386 398.667L339.95 398.523C340.31 398.523 340.49 398.667 340.49 398.955C340.49 399.291 340.334 399.471 340.022 399.495L339.41 399.603C338.45 399.771 337.97 400.251 337.97 401.043V414.651C337.97 416.883 338.642 418.623 339.986 419.871C341.33 421.119 343.094 421.743 345.278 421.743C347.486 421.743 349.262 421.107 350.606 419.835C351.974 418.563 352.658 416.835 352.658 414.651V401.043C352.658 400.251 352.178 399.771 351.218 399.603L350.606 399.495C350.294 399.447 350.138 399.279 350.138 398.991C350.138 398.703 350.318 398.559 350.678 398.559L353.486 398.667L356.978 398.559C357.314 398.559 357.482 398.703 357.482 398.991C357.482 399.279 357.35 399.447 357.086 399.495L356.042 399.603C354.938 399.723 354.386 400.203 354.386 401.043V414.615C354.386 417.567 353.474 419.919 351.65 421.671C349.85 423.399 347.534 424.263 344.702 424.263C341.87 424.263 339.53 423.363 337.682 421.563C335.834 419.763 334.91 417.447 334.91 414.615Z" fill="#D6C58E"/>
<path d="M318.581 398.271C322.373 398.271 325.409 399.483 327.689 401.907C329.993 404.307 331.145 407.403 331.145 411.195C331.145 414.987 329.969 418.119 327.617 420.591C325.289 423.039 322.253 424.263 318.509 424.263C314.789 424.263 311.765 423.039 309.437 420.591C307.109 418.143 305.945 415.047 305.945 411.303C305.945 407.535 307.109 404.427 309.437 401.979C311.765 399.507 314.813 398.271 318.581 398.271ZM325.673 403.923C324.977 402.699 324.017 401.727 322.793 401.007C321.569 400.287 320.141 399.927 318.509 399.927C315.581 399.927 313.313 400.827 311.705 402.627C310.121 404.403 309.329 406.827 309.329 409.899C309.329 413.091 310.049 415.947 311.489 418.467C312.185 419.715 313.157 420.723 314.405 421.491C315.653 422.235 317.081 422.607 318.689 422.607C321.545 422.607 323.765 421.671 325.349 419.799C326.957 417.927 327.761 415.407 327.761 412.239C327.761 409.071 327.065 406.299 325.673 403.923Z" fill="#D6C58E"/>
<path d="M306.761 398.56C307.097 398.56 307.265 398.704 307.265 398.992C307.265 399.28 307.133 399.448 306.869 399.496L305.825 399.604C305.033 399.676 304.349 400.156 303.773 401.044L296.753 412.276C296.465 412.78 296.297 413.344 296.249 413.968V421.492C296.249 421.924 296.405 422.272 296.717 422.536C297.029 422.776 297.413 422.92 297.869 422.968L298.913 423.04C299.201 423.04 299.345 423.196 299.345 423.508C299.345 423.652 299.285 423.772 299.165 423.868C299.069 423.964 298.961 424.012 298.841 424.012L294.773 423.868L291.173 424.012C290.837 424.012 290.669 423.868 290.669 423.58C290.669 423.268 290.801 423.088 291.065 423.04L291.677 422.968C292.661 422.848 293.153 422.356 293.153 421.492V414.472C293.153 414.016 293.045 413.596 292.829 413.212L284.981 401.044C284.405 400.156 283.709 399.676 282.893 399.604L281.849 399.496C281.585 399.448 281.453 399.28 281.453 398.992C281.453 398.704 281.621 398.56 281.957 398.56L286.241 398.668L290.057 398.596C290.417 398.596 290.597 398.752 290.597 399.064C290.597 399.376 290.453 399.544 290.165 399.568L289.481 399.64C289.049 399.688 288.761 399.868 288.617 400.18C288.497 400.492 288.533 400.78 288.725 401.044L294.989 411.34C295.085 411.508 295.193 411.592 295.313 411.592C295.433 411.592 295.541 411.532 295.637 411.412L301.793 401.044C301.985 400.78 302.009 400.504 301.865 400.216C301.745 399.904 301.469 399.712 301.037 399.64L300.353 399.568C300.017 399.52 299.873 399.352 299.921 399.064C299.969 398.752 300.149 398.596 300.461 398.596L303.269 398.668L306.761 398.56Z" fill="#D6C58E"/>
<path d="M268.665 408.927C269.793 407.991 270.357 406.767 270.357 405.255C270.357 403.743 269.805 402.543 268.701 401.655C267.597 400.743 266.205 400.287 264.525 400.287H261.141C260.181 400.287 259.701 400.767 259.701 401.727V409.827C259.701 410.139 259.833 410.295 260.097 410.295H264.525C266.181 410.295 267.561 409.839 268.665 408.927ZM265.749 398.667C268.053 398.667 269.937 399.255 271.401 400.431C272.889 401.607 273.633 403.167 273.633 405.111C273.633 407.031 272.901 408.627 271.437 409.899C269.997 411.147 268.389 411.795 266.613 411.843L266.577 411.915C267.081 412.083 267.477 412.395 267.765 412.851L273.201 421.491C273.705 422.331 274.497 422.823 275.577 422.967L276.225 423.039C276.537 423.087 276.693 423.243 276.693 423.507C276.693 423.843 276.513 424.011 276.153 424.011C273.849 423.915 272.409 423.867 271.833 423.867C271.281 423.867 270.849 423.627 270.537 423.147L264.453 413.031C263.973 412.287 263.445 411.915 262.869 411.915C262.869 411.915 262.857 411.915 262.833 411.915H260.241C259.881 411.915 259.701 412.059 259.701 412.347V421.491C259.701 421.923 259.857 422.271 260.169 422.535C260.481 422.799 260.865 422.943 261.321 422.967L262.833 423.039C263.097 423.039 263.229 423.207 263.229 423.543C263.229 423.855 263.061 424.011 262.725 424.011L258.225 423.867L254.229 424.011C253.917 424.011 253.737 423.867 253.689 423.579C253.689 423.243 253.833 423.063 254.121 423.039L255.165 422.967C256.149 422.895 256.641 422.403 256.641 421.491V401.043C256.641 400.179 256.089 399.699 254.985 399.603L253.941 399.495C253.677 399.447 253.545 399.291 253.545 399.027C253.545 398.691 253.713 398.523 254.049 398.523L259.017 398.667H265.749Z" fill="#D6C58E"/>
<path d="M239.608 398.271C243.4 398.271 246.436 399.483 248.716 401.907C251.02 404.307 252.172 407.403 252.172 411.195C252.172 414.987 250.996 418.119 248.644 420.591C246.316 423.039 243.28 424.263 239.536 424.263C235.816 424.263 232.792 423.039 230.464 420.591C228.136 418.143 226.972 415.047 226.972 411.303C226.972 407.535 228.136 404.427 230.464 401.979C232.792 399.507 235.84 398.271 239.608 398.271ZM246.7 403.923C246.004 402.699 245.044 401.727 243.82 401.007C242.596 400.287 241.168 399.927 239.536 399.927C236.608 399.927 234.34 400.827 232.732 402.627C231.148 404.403 230.356 406.827 230.356 409.899C230.356 413.091 231.076 415.947 232.516 418.467C233.212 419.715 234.184 420.723 235.432 421.491C236.68 422.235 238.108 422.607 239.716 422.607C242.572 422.607 244.792 421.671 246.376 419.799C247.984 417.927 248.788 415.407 248.788 412.239C248.788 409.071 248.092 406.299 246.7 403.923Z" fill="#D6C58E"/>
<path d="M225.915 403.419C225.963 403.851 225.783 404.067 225.375 404.067C224.991 404.067 224.739 403.875 224.619 403.491C224.259 402.339 223.719 401.523 222.999 401.043C222.279 400.563 221.283 400.323 220.011 400.323H214.719C214.191 400.323 213.759 400.479 213.423 400.791C213.111 401.079 212.955 401.487 212.955 402.015V409.935C212.955 410.247 213.111 410.403 213.423 410.403H219.759C220.071 410.403 220.323 410.331 220.515 410.187C220.731 410.019 220.863 409.851 220.911 409.683C220.983 409.515 221.079 409.251 221.199 408.891L221.343 408.423C221.415 408.159 221.571 408.027 221.811 408.027C222.147 408.027 222.315 408.183 222.315 408.495L222.171 411.591L222.315 414.579C222.315 414.915 222.159 415.083 221.847 415.083C221.559 415.083 221.391 414.939 221.343 414.651L221.235 414.003C221.139 413.379 220.983 412.911 220.767 412.599C220.575 412.287 220.239 412.131 219.759 412.131H213.387C213.099 412.131 212.955 412.299 212.955 412.635V421.491C212.955 422.379 213.483 422.871 214.539 422.967L215.619 423.039C215.907 423.039 216.051 423.183 216.051 423.471C216.051 423.831 215.871 424.011 215.511 424.011L211.371 423.867L207.303 424.011C206.967 424.011 206.799 423.855 206.799 423.543C206.799 423.207 206.931 423.039 207.195 423.039L208.239 422.967C208.719 422.919 209.115 422.775 209.427 422.535C209.739 422.271 209.895 421.923 209.895 421.491V401.043C209.895 400.179 209.343 399.699 208.239 399.603L207.195 399.495C206.931 399.495 206.799 399.339 206.799 399.027C206.799 398.691 206.967 398.523 207.303 398.523L211.371 398.667H223.791C224.247 398.667 224.619 398.811 224.907 399.099C225.195 399.363 225.363 399.699 225.411 400.107L225.915 403.419Z" fill="#D6C58E"/>
<path d="M196.758 423.867H183.258L179.19 424.011C178.854 424.011 178.686 423.855 178.686 423.543C178.686 423.207 178.818 423.039 179.082 423.039L180.126 422.967C180.606 422.919 181.002 422.775 181.314 422.535C181.626 422.271 181.782 421.923 181.782 421.491V401.043C181.782 400.179 181.23 399.699 180.126 399.603L179.082 399.495C178.818 399.495 178.686 399.339 178.686 399.027C178.686 398.691 178.854 398.523 179.19 398.523L183.258 398.667H196.038C196.494 398.667 196.866 398.811 197.154 399.099C197.442 399.363 197.61 399.699 197.658 400.107L198.162 403.419C198.21 403.851 198.03 404.067 197.622 404.067C197.238 404.067 196.986 403.875 196.866 403.491C196.506 402.339 195.966 401.523 195.246 401.043C194.526 400.563 193.53 400.323 192.258 400.323H186.606C186.078 400.323 185.646 400.479 185.31 400.791C184.998 401.079 184.842 401.487 184.842 402.015V409.575C184.842 409.887 184.998 410.043 185.31 410.043H192.006C192.342 410.043 192.606 409.959 192.798 409.791C192.99 409.623 193.11 409.467 193.158 409.323C193.23 409.179 193.326 408.915 193.446 408.531L193.59 408.063C193.662 407.775 193.842 407.631 194.13 407.631C194.418 407.631 194.562 407.799 194.562 408.135L194.418 411.195L194.562 414.111C194.562 414.423 194.406 414.603 194.094 414.651C193.806 414.651 193.638 414.507 193.59 414.219L193.482 413.571C193.266 412.323 192.774 411.699 192.006 411.699H185.274C184.986 411.699 184.842 411.867 184.842 412.203V420.555C184.842 421.059 184.998 421.467 185.31 421.779C185.646 422.067 186.078 422.211 186.606 422.211H192.546C193.794 422.211 194.862 421.911 195.75 421.311C196.662 420.687 197.298 419.787 197.658 418.611C197.778 418.227 197.97 418.035 198.234 418.035C198.522 418.035 198.714 418.107 198.81 418.251C198.93 418.371 198.978 418.515 198.954 418.683L198.378 422.427C198.33 422.835 198.15 423.183 197.838 423.471C197.55 423.735 197.19 423.867 196.758 423.867Z" fill="#D6C58E"/>
<path d="M177.295 417.351C177.295 419.607 176.443 421.323 174.739 422.499C173.059 423.675 171.007 424.263 168.583 424.263C166.183 424.263 164.203 423.975 162.643 423.399C161.107 422.823 160.339 422.187 160.339 421.491V417.279C160.339 416.775 160.531 416.523 160.915 416.523C161.227 416.523 161.443 416.751 161.563 417.207C162.187 419.055 162.991 420.435 163.975 421.347C164.983 422.235 166.387 422.679 168.187 422.679C169.987 422.679 171.439 422.271 172.543 421.455C173.671 420.639 174.235 419.511 174.235 418.071C174.235 416.487 173.347 415.155 171.571 414.075C170.779 413.595 169.903 413.127 168.943 412.671C167.983 412.215 167.023 411.747 166.063 411.267C165.103 410.763 164.227 410.223 163.435 409.647C161.659 408.351 160.771 406.719 160.771 404.751C160.771 402.759 161.527 401.187 163.039 400.035C164.575 398.859 166.375 398.271 168.439 398.271C170.503 398.271 172.255 398.535 173.695 399.063C175.135 399.567 175.855 400.131 175.855 400.755V404.391C175.855 404.871 175.675 405.111 175.315 405.111C174.979 405.111 174.727 404.871 174.559 404.391C174.055 402.855 173.395 401.715 172.579 400.971C171.763 400.227 170.539 399.855 168.907 399.855C167.299 399.855 166.027 400.239 165.091 401.007C164.155 401.775 163.687 402.735 163.687 403.887C163.687 405.015 164.155 405.999 165.091 406.839C166.027 407.655 167.155 408.387 168.475 409.035C169.819 409.659 171.151 410.319 172.471 411.015C173.815 411.687 174.955 412.563 175.891 413.643C176.827 414.723 177.295 415.959 177.295 417.351Z" fill="#D6C58E"/>
<path d="M145.682 398.271C149.474 398.271 152.51 399.483 154.79 401.907C157.094 404.307 158.246 407.403 158.246 411.195C158.246 414.987 157.07 418.119 154.718 420.591C152.39 423.039 149.354 424.263 145.61 424.263C141.89 424.263 138.866 423.039 136.538 420.591C134.21 418.143 133.046 415.047 133.046 411.303C133.046 407.535 134.21 404.427 136.538 401.979C138.866 399.507 141.914 398.271 145.682 398.271ZM152.774 403.923C152.078 402.699 151.118 401.727 149.894 401.007C148.67 400.287 147.242 399.927 145.61 399.927C142.682 399.927 140.414 400.827 138.806 402.627C137.222 404.403 136.43 406.827 136.43 409.899C136.43 413.091 137.15 415.947 138.59 418.467C139.286 419.715 140.258 420.723 141.506 421.491C142.754 422.235 144.182 422.607 145.79 422.607C148.646 422.607 150.866 421.671 152.45 419.799C154.058 417.927 154.862 415.407 154.862 412.239C154.862 409.071 154.166 406.299 152.774 403.923Z" fill="#D6C58E"/>
<path d="M119.31 401.043V420.555C119.31 421.059 119.466 421.467 119.778 421.779C120.114 422.067 120.546 422.211 121.074 422.211H126.294C127.566 422.211 128.658 421.911 129.57 421.311C130.482 420.687 131.106 419.787 131.442 418.611C131.562 418.227 131.814 418.035 132.198 418.035C132.582 418.035 132.75 418.251 132.702 418.683L132.126 422.427C132.078 422.835 131.91 423.183 131.622 423.471C131.334 423.735 130.962 423.867 130.506 423.867H117.726L113.658 424.011C113.322 424.011 113.154 423.855 113.154 423.543C113.154 423.207 113.286 423.039 113.55 423.039L114.594 422.967C115.074 422.919 115.47 422.775 115.782 422.535C116.094 422.271 116.25 421.923 116.25 421.491V401.043C116.25 400.179 115.698 399.699 114.594 399.603L113.55 399.495C113.286 399.447 113.154 399.291 113.154 399.027C113.154 398.691 113.322 398.523 113.658 398.523L117.726 398.667L121.29 398.523C121.65 398.523 121.83 398.667 121.83 398.955C121.83 399.291 121.674 399.471 121.362 399.495L120.75 399.603C119.79 399.771 119.31 400.251 119.31 401.043Z" fill="#D6C58E"/>
<path d="M111.716 404.823C111.716 404.991 111.656 405.159 111.536 405.327C111.44 405.471 111.308 405.543 111.14 405.543C110.732 405.543 110.468 405.303 110.348 404.823C109.916 403.215 109.112 401.955 107.936 401.043C106.76 400.131 105.368 399.675 103.76 399.675C100.856 399.675 98.54 400.671 96.812 402.663C95.108 404.655 94.256 407.199 94.256 410.295C94.256 413.391 95.156 416.151 96.956 418.575C98.78 420.999 101.048 422.211 103.76 422.211C105.32 422.211 106.484 422.067 107.252 421.779C108.044 421.467 108.572 421.251 108.836 421.131C109.124 420.987 109.484 420.771 109.916 420.483C110.348 420.195 110.588 420.039 110.636 420.015C111.068 419.751 111.368 419.715 111.536 419.907C111.704 420.075 111.788 420.243 111.788 420.411C111.788 420.579 111.692 420.759 111.5 420.951C110.684 421.863 109.844 422.547 108.98 423.003C107.42 423.843 105.56 424.263 103.4 424.263C99.656 424.263 96.62 423.027 94.292 420.555C91.964 418.083 90.8 414.975 90.8 411.231C90.8 407.487 91.988 404.391 94.364 401.943C96.74 399.495 99.872 398.271 103.76 398.271C105.776 398.271 107.6 398.547 109.232 399.099C110.888 399.651 111.716 400.191 111.716 400.719V404.823Z" fill="#D6C58E"/>
</svg>
